<?xml version="1.0"?>
<svg xmlns="http://www.w3.org/2000/svg" xmlns:xlink="http://www.w3.org/1999/xlink" xmlns:svgjs="http://svgjs.com/svgjs" version="1.1" width="512" height="512" x="0" y="0" viewBox="0 0 60 60" style="enable-background:new 0 0 512 512" xml:space="preserve" class=""><g><path xmlns="http://www.w3.org/2000/svg" d="M19,18h6a2,2,0,0,1,2,2v3.238a6.989,6.989,0,0,1-.222,1.749L24.031,35.622A1.115,1.115,0,0,0,25.7,36.836a1.1,1.1,0,0,0,.5-.7l2.268-9.922a1.57,1.57,0,0,1,3.062,0L33.8,36.138a1.115,1.115,0,0,0,1.355.829,1.119,1.119,0,0,0,.813-1.353L33.223,24.988A6.958,6.958,0,0,1,33,23.238V20a2,2,0,0,1,2-2h5.893a1.083,1.083,0,0,0,1.092-.825A1,1,0,0,0,41,16H19.107a1.083,1.083,0,0,0-1.092.825A1,1,0,0,0,19,18Z" fill="#e93a7d" data-original="#000000" class=""/><circle xmlns="http://www.w3.org/2000/svg" cx="30" cy="8" r="2" fill="#e93a7d" data-original="#000000" class=""/><path xmlns="http://www.w3.org/2000/svg" d="M30,42A20,20,0,1,0,10,22,20.023,20.023,0,0,0,30,42ZM30,4a4,4,0,1,1-4,4A4,4,0,0,1,30,4ZM16.04,16.5A3.084,3.084,0,0,1,19.107,14H41a3,3,0,0,1,2.96,3.5A3.084,3.084,0,0,1,40.893,20H35v3.238a5.048,5.048,0,0,0,.159,1.251L37.9,35.122A3.122,3.122,0,0,1,34.878,39a3.118,3.118,0,0,1-3.028-2.416L30,28.49l-1.85,8.093a3.114,3.114,0,1,1-6.056-1.453l2.748-10.642A5.08,5.08,0,0,0,25,23.238V20H19a3,3,0,0,1-2.96-3.5Z" fill="#e93a7d" data-original="#000000" class=""/><path xmlns="http://www.w3.org/2000/svg" d="M58,48H44.816a2.982,2.982,0,0,0-5.632,0H2a1,1,0,0,0,0,2H39.184a2.982,2.982,0,0,0,5.632,0H58a1,1,0,0,0,0-2Z" fill="#e93a7d" data-original="#000000" class=""/><path xmlns="http://www.w3.org/2000/svg" d="M58,55H22.816a2.982,2.982,0,0,0-5.632,0H2a1,1,0,0,0,0,2H17.184a2.982,2.982,0,0,0,5.632,0H58a1,1,0,0,0,0-2Z" fill="#e93a7d" data-original="#000000" class=""/></g></svg>
