<?xml version="1.0"?>
<svg xmlns="http://www.w3.org/2000/svg" xmlns:xlink="http://www.w3.org/1999/xlink" xmlns:svgjs="http://svgjs.com/svgjs" version="1.1" width="512" height="512" x="0" y="0" viewBox="0 0 60 60" style="enable-background:new 0 0 512 512" xml:space="preserve"><g><path xmlns="http://www.w3.org/2000/svg" d="M6,54H54V10H6ZM32,16a3,3,0,0,1,3-3H49a3,3,0,0,1,3,3V28a3,3,0,0,1-3,3H35a3,3,0,0,1-3-3Zm0,20a3,3,0,0,1,3-3H49a3,3,0,0,1,3,3V48a3,3,0,0,1-3,3H35a3,3,0,0,1-3-3ZM8,16a3,3,0,0,1,3-3H25a3,3,0,0,1,3,3V28a3,3,0,0,1-3,3H11a3,3,0,0,1-3-3ZM8,36a3,3,0,0,1,3-3H25a3,3,0,0,1,3,3V48a3,3,0,0,1-3,3H11a3,3,0,0,1-3-3Z" fill="#e93a7d" data-original="#000000"/><path xmlns="http://www.w3.org/2000/svg" d="M11,49H25a1,1,0,0,0,1-1V36a1,1,0,0,0-1-1H11a1,1,0,0,0-1,1V48A1,1,0,0,0,11,49Zm7-12a4.994,4.994,0,0,1,3.562,8.5c-.01.011-.014.026-.025.037s-.026.015-.037.025A5,5,0,1,1,18,37Z" fill="#e93a7d" data-original="#000000"/><path xmlns="http://www.w3.org/2000/svg" d="M56,2H4A2,2,0,0,0,2,4V56a2,2,0,0,0,2,2H56a2,2,0,0,0,2-2V4A2,2,0,0,0,56,2ZM48,4h6a1,1,0,0,1,0,2H48a1,1,0,0,1,0-2ZM16,4h1a1,1,0,0,1,0,2H16a1,1,0,0,1,0-2ZM11,4h1a1,1,0,0,1,0,2H11a1,1,0,0,1,0-2ZM6,4H7A1,1,0,0,1,7,6H6A1,1,0,0,1,6,4ZM56,54a2,2,0,0,1-2,2H6a2,2,0,0,1-2-2V10A2,2,0,0,1,6,8H54a2,2,0,0,1,2,2Z" fill="#e93a7d" data-original="#000000"/><circle xmlns="http://www.w3.org/2000/svg" cx="18" cy="21" r="2" fill="#e93a7d" data-original="#000000"/><path xmlns="http://www.w3.org/2000/svg" d="M35,49H49a1,1,0,0,0,1-1V36a1,1,0,0,0-1-1H35a1,1,0,0,0-1,1V48A1,1,0,0,0,35,49Zm4-8h2V39a1,1,0,0,1,2,0v2h2a1,1,0,0,1,0,2H43v2a1,1,0,0,1-2,0V43H39a1,1,0,0,1,0-2Z" fill="#e93a7d" data-original="#000000"/><path xmlns="http://www.w3.org/2000/svg" d="M18,25a4,4,0,0,0-4,4h8A4,4,0,0,0,18,25Z" fill="#e93a7d" data-original="#000000"/><path xmlns="http://www.w3.org/2000/svg" d="M35,29H49a1,1,0,0,0,1-1V16a1,1,0,0,0-1-1H35a1,1,0,0,0-1,1V28A1,1,0,0,0,35,29Zm8.293-9.707,1-1A1,1,0,0,1,46,19v6a1,1,0,0,1-2,0V21a1,1,0,0,1-.707-1.707Zm-5,0,1-1A1,1,0,0,1,41,19v6a1,1,0,0,1-2,0V21a1,1,0,0,1-.707-1.707Z" fill="#e93a7d" data-original="#000000"/><path xmlns="http://www.w3.org/2000/svg" d="M21,42a3,3,0,0,0-2-2.816v2.4l1.7,1.7A2.951,2.951,0,0,0,21,42Z" fill="#e93a7d" data-original="#000000"/><path xmlns="http://www.w3.org/2000/svg" d="M18,45a2.951,2.951,0,0,0,1.285-.3l-1.992-1.992A1,1,0,0,1,17,42V39.184A2.993,2.993,0,0,0,18,45Z" fill="#e93a7d" data-original="#000000"/><path xmlns="http://www.w3.org/2000/svg" d="M11,29h1a6,6,0,0,1,3.107-5.253,4,4,0,1,1,5.786,0A6,6,0,0,1,24,29h1a1,1,0,0,0,1-1V16a1,1,0,0,0-1-1H11a1,1,0,0,0-1,1V28A1,1,0,0,0,11,29Z" fill="#e93a7d" data-original="#000000"/></g></svg>
