<?xml version="1.0"?>
<svg xmlns="http://www.w3.org/2000/svg" xmlns:xlink="http://www.w3.org/1999/xlink" xmlns:svgjs="http://svgjs.com/svgjs" version="1.1" width="512" height="512" x="0" y="0" viewBox="0 0 60 60" style="enable-background:new 0 0 512 512" xml:space="preserve"><g><path xmlns="http://www.w3.org/2000/svg" d="M56,2H4A2,2,0,0,0,2,4V56a2,2,0,0,0,2,2H56a2,2,0,0,0,2-2V4A2,2,0,0,0,56,2ZM48,4h6a1,1,0,0,1,0,2H48a1,1,0,0,1,0-2ZM16,4h1a1,1,0,0,1,0,2H16a1,1,0,0,1,0-2ZM11,4h1a1,1,0,0,1,0,2H11a1,1,0,0,1,0-2ZM6,4H7A1,1,0,0,1,7,6H6A1,1,0,0,1,6,4ZM56,54a2,2,0,0,1-2,2H6a2,2,0,0,1-2-2V10A2,2,0,0,1,6,8H54a2,2,0,0,1,2,2Z" fill="#e93a7d" data-original="#000000"/><path xmlns="http://www.w3.org/2000/svg" d="M16.92,15H12a1,1,0,0,0-1,1v4.92A7,7,0,0,0,16.92,15Z" fill="#e93a7d" data-original="#000000"/><path xmlns="http://www.w3.org/2000/svg" d="M31.431,25.063,33.7,27.286a1,1,0,1,1-1.4,1.428l-3-2.939-3.834-3.756L16.425,31H43.586l-8.993-8.993C32.973,23.575,32.015,24.5,31.431,25.063Z" fill="#e93a7d" data-original="#000000"/><path xmlns="http://www.w3.org/2000/svg" d="M12,31h1.586l10.4-10.4a2.088,2.088,0,0,1,2.885,0L30,23.66l3.132-3.074a2.055,2.055,0,0,1,2.878.007L46.414,31H48a1,1,0,0,0,1-1V16a1,1,0,0,0-1-1H18.941A9.012,9.012,0,0,1,11,22.941V30A1,1,0,0,0,12,31ZM41,18a2.987,2.987,0,0,1,2,.766A2.987,2.987,0,0,1,45,18a1,1,0,0,1,0,2,1,1,0,0,0-1,1,1,1,0,0,1-2,0,1,1,0,0,0-1-1,1,1,0,0,1,0-2Z" fill="#e93a7d" data-original="#000000"/><path xmlns="http://www.w3.org/2000/svg" d="M6,54l48,0V10H6Zm30-4H12a1,1,0,0,1,0-2H36a1,1,0,0,1,0,2ZM12,44h7a1,1,0,0,1,0,2H12a1,1,0,0,1,0-2Zm-1-3a1,1,0,0,1,1-1H33a1,1,0,0,1,0,2H12A1,1,0,0,1,11,41Zm37,5H23a1,1,0,0,1,0-2H48a1,1,0,0,1,0,2Zm0-4H37a1,1,0,0,1,0-2H48a1,1,0,0,1,0,2Zm0-4H12a1,1,0,0,1,0-2H48a1,1,0,0,1,0,2ZM9,16a3,3,0,0,1,3-3H48a3,3,0,0,1,3,3V30a3,3,0,0,1-3,3H12a3,3,0,0,1-3-3Z" fill="#e93a7d" data-original="#000000"/></g></svg>
