<?xml version="1.0"?>
<svg xmlns="http://www.w3.org/2000/svg" xmlns:xlink="http://www.w3.org/1999/xlink" xmlns:svgjs="http://svgjs.com/svgjs" version="1.1" width="512" height="512" x="0" y="0" viewBox="0 0 60 60" style="enable-background:new 0 0 512 512" xml:space="preserve"><g><path xmlns="http://www.w3.org/2000/svg" d="M38,52a1,1,0,0,0-1-1H23a1,1,0,0,0,0,2H37A1,1,0,0,0,38,52Z" fill="#e93a7d" data-original="#000000"/><path xmlns="http://www.w3.org/2000/svg" d="M39,48a1,1,0,0,0-1-1H22a1,1,0,0,0,0,2H38A1,1,0,0,0,39,48Z" fill="#e93a7d" data-original="#000000"/><path xmlns="http://www.w3.org/2000/svg" d="M20.431,40.554A7.048,7.048,0,0,1,22.925,45H25V36H24a3,3,0,1,1,3-3v1h6V33a3,3,0,1,1,3,3H35v9h2.077a7.182,7.182,0,0,1,2.536-4.482,14.9,14.9,0,0,0,5.362-12.4,15.114,15.114,0,0,0-14.312-14.1A15,15,0,0,0,20.431,40.554ZM19,29a1,1,0,0,1-2,0c0-.364.015-.726.044-1.083a1,1,0,1,1,1.994.166C19.013,28.386,19,28.69,19,29Zm-.326-4.092a1,1,0,0,1-.49-1.326A13.05,13.05,0,0,1,30,16a1,1,0,0,1,0,2,11.048,11.048,0,0,0-10,6.418,1,1,0,0,1-.909.582A.986.986,0,0,1,18.674,24.908Z" fill="#e93a7d" data-original="#000000"/><path xmlns="http://www.w3.org/2000/svg" d="M30,58a4,4,0,0,0,3.858-3H26.142A4,4,0,0,0,30,58Z" fill="#e93a7d" data-original="#000000"/><path xmlns="http://www.w3.org/2000/svg" d="M54,41V10H6V41H17.974A16.991,16.991,0,0,1,30.749,12.017,17.131,17.131,0,0,1,46.971,28a16.864,16.864,0,0,1-4.935,13Z" fill="#e93a7d" data-original="#000000"/><path xmlns="http://www.w3.org/2000/svg" d="M37,33a1,1,0,0,0-2,0v1h1A1,1,0,0,0,37,33Z" fill="#e93a7d" data-original="#000000"/><path xmlns="http://www.w3.org/2000/svg" d="M24,32a1,1,0,0,0,0,2h1V33A1,1,0,0,0,24,32Z" fill="#e93a7d" data-original="#000000"/><rect xmlns="http://www.w3.org/2000/svg" x="27" y="36" width="6" height="9" fill="#e93a7d" data-original="#000000"/><path xmlns="http://www.w3.org/2000/svg" d="M56,2H4A2,2,0,0,0,2,4V43a2,2,0,0,0,2,2H20.9a4.981,4.981,0,0,0-.892-2H6a2,2,0,0,1-2-2V10A2,2,0,0,1,6,8H54a2,2,0,0,1,2,2V41a2,2,0,0,1-2,2H40.007a5.069,5.069,0,0,0-.9,2H56a2,2,0,0,0,2-2V4A2,2,0,0,0,56,2ZM7,6H6A1,1,0,0,1,6,4H7A1,1,0,0,1,7,6Zm5,0H11a1,1,0,0,1,0-2h1a1,1,0,0,1,0,2Zm5,0H16a1,1,0,0,1,0-2h1a1,1,0,0,1,0,2ZM54,6H48a1,1,0,0,1,0-2h6a1,1,0,0,1,0,2Z" fill="#e93a7d" data-original="#000000"/></g></svg>
