<?xml version="1.0"?>
<svg xmlns="http://www.w3.org/2000/svg" xmlns:xlink="http://www.w3.org/1999/xlink" xmlns:svgjs="http://svgjs.com/svgjs" version="1.1" width="512" height="512" x="0" y="0" viewBox="0 0 60 60" style="enable-background:new 0 0 512 512" xml:space="preserve" class=""><g><path xmlns="http://www.w3.org/2000/svg" d="M35,23H33a1,1,0,0,1,0-2h.382l1-2H29a7.008,7.008,0,0,0-7,7v1.051a2.493,2.493,0,0,1,1.693.252A3.789,3.789,0,0,1,26.05,25.77,7.85,7.85,0,0,0,28.5,24.9a2.949,2.949,0,0,1,3.007,0h0a7.825,7.825,0,0,0,2.445.871A3.81,3.81,0,0,1,36.312,27.3,2.49,2.49,0,0,1,38,27.051V26A3,3,0,0,0,35,23Z" fill="#e93a7d" data-original="#000000" class=""/><path xmlns="http://www.w3.org/2000/svg" d="M30,13A17,17,0,1,0,47,30,17.019,17.019,0,0,0,30,13ZM40,29.5V32a3,3,0,0,1-2.048,2.845C37.642,37.71,35.729,42,30,42s-7.642-4.29-7.952-7.155A3,3,0,0,1,20,32V26a9.01,9.01,0,0,1,9-9h5.382a2,2,0,0,1,1.789,2.894l-.57,1.142A5.007,5.007,0,0,1,40,26Z" fill="#e93a7d" data-original="#000000" class=""/><path xmlns="http://www.w3.org/2000/svg" d="M57.894,27.6a.7.7,0,0,0-.443-.557L54.077,25.7a1,1,0,0,1-.607-.721,23.784,23.784,0,0,0-3.325-8.016,1,1,0,0,1-.082-.937l1.43-3.348a.66.66,0,0,0-.074-.7c-.454-.55-.968-1.114-1.627-1.79-.658-.642-1.222-1.155-1.759-1.6a.665.665,0,0,0-.709-.086l-3.349,1.43a1,1,0,0,1-.937-.081A23.776,23.776,0,0,0,35.021,6.53a1,1,0,0,1-.72-.607L32.952,2.544a.7.7,0,0,0-.555-.438C31.679,2.035,30.9,2,30,2s-1.679.035-2.386.1a.7.7,0,0,0-.568.445L25.7,5.923a1,1,0,0,1-.72.607,23.776,23.776,0,0,0-8.017,3.325,1,1,0,0,1-.937.081L12.677,8.507a.662.662,0,0,0-.7.074c-.549.455-1.113.968-1.787,1.627-.643.659-1.157,1.223-1.6,1.758a.664.664,0,0,0-.087.71l1.43,3.349a1,1,0,0,1-.082.937A23.784,23.784,0,0,0,6.53,24.978a1,1,0,0,1-.607.721L2.545,27.048a.7.7,0,0,0-.439.556A23.62,23.62,0,0,0,2,30a23.562,23.562,0,0,0,.1,2.386.7.7,0,0,0,.445.568L5.923,34.3a1,1,0,0,1,.607.72,23.8,23.8,0,0,0,3.325,8.018,1,1,0,0,1,.082.937l-1.43,3.347a.662.662,0,0,0,.074.7c.453.547.966,1.111,1.627,1.788.661.645,1.225,1.158,1.758,1.6a.666.666,0,0,0,.71.086l3.348-1.43a1.015,1.015,0,0,1,.393-.08,1,1,0,0,1,.544.162,23.827,23.827,0,0,0,8.018,3.326,1,1,0,0,1,.72.606l1.349,3.378a.7.7,0,0,0,.556.439A23.943,23.943,0,0,0,30,58c.9,0,1.679-.034,2.386-.1a.7.7,0,0,0,.568-.445L34.3,54.077a1,1,0,0,1,.72-.606,23.827,23.827,0,0,0,8.018-3.326,1.006,1.006,0,0,1,.937-.082l3.347,1.43a.662.662,0,0,0,.7-.074c.547-.453,1.111-.966,1.788-1.627.645-.661,1.158-1.225,1.6-1.758a.665.665,0,0,0,.086-.71l-1.43-3.348a1,1,0,0,1,.082-.937,23.8,23.8,0,0,0,3.325-8.018,1,1,0,0,1,.607-.72l3.378-1.349a.7.7,0,0,0,.439-.556A23.593,23.593,0,0,0,58,30a23.589,23.589,0,0,0-.1-2.386ZM30,51A21,21,0,1,1,51,30,21.024,21.024,0,0,1,30,51Z" fill="#e93a7d" data-original="#000000" class=""/><path xmlns="http://www.w3.org/2000/svg" d="M37.5,29a.5.5,0,0,0-.5.5,1,1,0,0,1-2,0,1.786,1.786,0,0,0-1.442-1.769,9.793,9.793,0,0,1-3.072-1.111.952.952,0,0,0-.97,0,9.818,9.818,0,0,1-3.074,1.112A1.771,1.771,0,0,0,25,29.446V29.5a1,1,0,0,1-2,0,.5.5,0,0,0-1,0V32a1,1,0,0,0,1,1,1,1,0,0,1,1,1c0,.611.2,6,6,6s6-5.389,6-6a1,1,0,0,1,1-1,1,1,0,0,0,1-1V29.5A.5.5,0,0,0,37.5,29Zm-4.7,7.6A3.52,3.52,0,0,1,30,38a3.474,3.474,0,0,1-2.8-1.4,1,1,0,0,1,1.6-1.2,1.543,1.543,0,0,0,2.4,0,1,1,0,0,1,1.6,1.2Z" fill="#e93a7d" data-original="#000000" class=""/></g></svg>
